# xmcd
#
# Track frame offsets:
#	150
#	17458
#	36793
#	50113
#	66105
#	80253
#	96028
#	112813
#	130498
#	146533
#	166337
#	182259
#	202420
#	216038
#	226923
#	252254
#	270287
#	284048
#	306768
#	327385
#
# Disc length: 4549 seconds
#
# Revision: 0
# Processed by: cddbd v1.5.2PL0 Copyright (c) Steve Scherf et al.
# Submitted via: audiograbber 1.83.01
#
DISCID=1c11c314
DTITLE=NCM - NCM 063
DYEAR=2009
DGENRE=Gospel
TTITLE0=Listening  - Dan Macauley
TTITLE1=My Lord Is Near Me All The Time  - Terry Warren
TTITLE2=Just Be Still  - The Anselm
TTITLE3=My Love  - Liz Doyle
TTITLE4=Better Not Dance  - The Steels
TTITLE5=Mercy Walked In  - Gordon Mote
TTITLE6=Time To Pray - Victoria Adexa
TTITLE7=Tell Me One More Time About Jesus  - Vince Gill
TTITLE8=Save The World  - Rob Ash
TTITLE9=Where Are The Chrildren  - Elaine Christian
TTITLE10=Father Of Compassion  - Ian Yates
TTITLE11=Butterfly  - Candi Staton
TTITLE12=The Diffénce Is Me  - Gaither Vocal Band
TTITLE13=There´s A Rainbow At The End Of Every Storm - Marty Stuart
TTITLE14=Look At Me  - Yazz
TTITLE15=Home  - Bobby Smith
TTITLE16=Family Ties  - Stella Parton
TTITLE17=Amazing Grace - Michael W Smith
TTITLE18=Seek Ye First  - Karen Lafferty
TTITLE19=Happy Shalt Thou Be  - Clint Miller
EXTD=
EXTT0=
EXTT1=
EXTT2=
EXTT3=
EXTT4=
EXTT5=
EXTT6=
EXTT7=
EXTT8=
EXTT9=
EXTT10=
EXTT11=
EXTT12=
EXTT13=
EXTT14=
EXTT15=
EXTT16=
EXTT17=
EXTT18=
EXTT19=
PLAYORDER=
